 http://img16.imageshack.us/img16/8501/73796273.jpg

Country.......: USA
Genre.........: Drama, Comedy, Romance
Date release..: 01.07.2011 [World]
Director......: Tom Hanks
Writers.......: Tom Hanks, Nia Vardalos
Duration......: 98 min.
More..........: http://www.imdb.com/title/tt1583420
Trailer.......: http://www.imdb.com/video/imdb/vi1973459993
Trailer.......:

Pilot :
After losing his job, a middle-aged man reinvents himself by going back to college. 

Cats :
Tom Hanks   	 ...  	Larry Crowne
Sarah Mahoney 	... 	Samantha
Roxana Ortega 	... 	Alvarez
Randall Park 	... 	Trainee Wong
Brady Rubin 	... 	Dorothy Genkos
Alex Quijano 	... 	Team Leader #1
Tina Huang 	... 	Team Leader #2
E Kan Soong 	... 	Team Leader #3
Tarina Pouncy 	... 	Team Leader #4
Sy Richardson 	... 	Avery
Julie Wagner 	... 	Vacuum Shopper
Rob Riggle 	... 	Jack Strang
Erin Underwood 	... 	Mom with Baby
Dale Dye 	... 	Cox
Barry Sobel 	... 	Cubby 

Data Technical :
!!! SAMPLE !!!
Audio.....: English
Subtitles.: Brak
Format                           : AVI
Format/Info                      : Audio Video Interleave
File size                        : 725 MiB
Duration                         : 1h 38mn
Overall bit rate                 : 1 032 Kbps
Writing library                  : VirtualDub build 32842/release
Video
ID                               : 0
Format                           : MPEG-4 Visual
Format profile                   : Advanced Simple@L5
Format settings, BVOP            : Yes
Format settings, QPel            : No
Format settings, GMC             : No warppoints
Format settings, Matrix          : Default (H.263)
Codec ID                         : XVID
Codec ID/Hint                    : XviD
Duration                         : 1h 38mn
Bit rate                         : 895 Kbps
Width                            : 640 pixels
Height                           : 224 pixels
Display aspect ratio             : 2.857
Frame rate                       : 23.000 fps
Color space                      : YUV
Chroma subsampling               : 4:2:0
Bit depth                        : 8 bits
Scan type                        : Progressive
Bits/(Pixel*Frame)               : 0.272
Stream size                      : 629 MiB (87%)
Writing library                  : XviD 63
Audio
ID                               : 1
Format                           : AC-3
Format/Info                      : Audio Coding 3
Mode extension                   : CM (complete main)
Codec ID                         : 2000
Duration                         : 1h 38mn
Bit rate mode                    : Constant
Bit rate                         : 128 Kbps
Channel(s)                       : 2 channels
Channel positions                : Front: L R
Sampling rate                    : 44.1 KHz
Bit depth                        : 16 bits
Stream size                      : 89.9 MiB (12%)
Alignment                        : Split accross interleaves
Interleave, duration             : 43 ms (1.00 video frame)
Interleave, preload duration     : 500 ms

Screen : 
http://img199.imageshack.us/img199/1391/larrycrowne2011s1.jpg 
http://img193.imageshack.us/img193/6240/larrycrowne2011s2.jpg 
http://img233.imageshack.us/img233/1605/larrycrowne2011s3.jpg 
http://img14.imageshack.us/img14/5559/larrycrowne2011s4.jpg 
http://img5.imageshack.us/img5/5527/larrycrowne2011s5.jpg